# xmcd
#
# Track frame offsets: 
#        150
#        15925
#        33560
#        49115
#        68405
#        80135
#        98145
#        114710
#        126700
#        138240
#        155140
#
# Disc length: 2304 seconds
#
# Revision: 6
# Processed by: cddbd v1.5.2PL0 Copyright (c) Steve Scherf et al.
# Submitted via: ExactAudioCopy v1.0b3
#
DISCID=9508fe0b
DTITLE=Tommy heavenly6 - I KILL MY HEART
DYEAR=2009
DGENRE=JPop
TTITLE0=Wait For Me There
TTITLE1=Leaving You
TTITLE2=Do You Know My Heart?
TTITLE3=Sad End To A Fairy Tale
TTITLE4=Shut Up
TTITLE5=Flower Crown
TTITLE6=Surely
TTITLE7=Gonna Change My Way Of Life
TTITLE8=Playground
TTITLE9=Things I Can Do
TTITLE10=You Should Live In The Sunny Light
EXTD=YEAR: 2009
EXTT0=
EXTT1=
EXTT2=
EXTT3=
EXTT4=
EXTT5=
EXTT6=
EXTT7=
EXTT8=
EXTT9=
EXTT10=
PLAYORDER=
